<svg width="512" height="512" viewBox="0 0 512 512" fill="none" xmlns="http://www.w3.org/2000/svg">
  <rect width="512" height="512" rx="96" fill="#FCF8EE"/>
  <g transform="translate(93.35 82) scale(0.5677)">
    <path d="M84.0997 221.541C97.0394 209.34 127.1 206.541 127.1 206.541C127.1 206.541 139.479 200.18 148.1 199.541C161.647 198.538 169.666 203.206 181.1 210.541C200.89 223.237 209.919 238.245 213.1 261.541C215.779 281.162 210.683 293.196 202.1 311.041C192.259 331.502 167.358 332.572 164.1 355.041C163.231 361.032 164.1 370.541 164.1 370.541L231.6 443.041L234.6 449.541C234.6 449.541 240.803 446.51 245.1 446.041C260.351 444.378 274.1 472.541 274.1 472.541L271.1 415.041L266.1 301.041C266.1 301.041 263.699 249.393 255.6 217.541C251.917 203.057 244.1 181.041 244.1 181.041C244.1 181.041 208.143 176.049 186.1 169.041C152.562 158.379 133.758 149.65 105.6 128.541C91.9891 118.338 84.3984 112.257 73.0997 99.5411C62.5908 87.7145 53.7336 81.8126 49.5997 66.5411C46.4873 55.044 43.2377 46.1108 49.5997 36.0411C54.5753 28.1658 62.0162 28.4512 69.5997 23.0411C76.8493 17.8693 79.8004 13.3395 87.5997 9.04115C104.892 -0.489037 117.869 0.798077 137.6 1.54115C165.617 2.59632 183.953 5.84764 206.1 23.0411C228.532 40.4559 238.558 57.1888 244.1 85.0411C247.224 100.745 242.099 110.155 244.1 126.041C246.271 143.288 255.6 169.041 255.6 169.041C255.6 169.041 263.155 150.169 266.1 137.541C270.464 118.827 265.262 107.001 270.6 88.5411C273.833 77.3586 276.306 71.1374 282.1 61.0411C292.076 43.6567 300.193 34.5554 316.6 23.0411C333.962 10.8559 346.176 6.52314 367.1 3.04115C387.924 -0.42428 401.031 -1.01046 421.1 5.54115C439.792 11.6435 449.782 18.551 463.6 32.5411C471.531 40.5712 478.49 44.5606 481.1 55.5411C483.668 66.3477 479.746 73.0492 476.1 83.5411C466.082 112.364 446.62 122.313 421.1 139.041C391.197 158.642 369.268 160.298 334.6 169.041C309.943 175.26 270.6 181.041 270.6 181.041C270.6 181.041 266.1 188.541 266.1 197.041C266.1 205.541 275.829 248.06 280.1 281.041C288.739 347.757 289.6 453.041 289.6 453.041C289.6 453.041 294.69 451.904 297.6 453.041C302.934 455.125 303.481 460.485 304.062 466.169L304.1 466.541C304.712 472.516 300.143 480.511 298.324 483.422C302.005 477.76 318.962 451.915 332.1 436.041C361.896 400.037 421.1 356.041 421.1 356.041V346.541C421.1 346.541 403.312 330.017 395.1 317.041C386.914 304.107 381.409 296.24 379.6 281.041C377.444 262.933 381.782 251.77 390.1 235.541C395.639 224.733 398.853 217.788 408.6 210.541C420.051 202.027 429.564 197.463 443.6 200.041C450.737 201.352 460.6 207.541 460.6 207.541C460.6 207.541 470.284 207.263 476.1 209.041C489.306 213.079 494.272 221.836 501.6 233.541C508.088 243.906 511.3 250.839 512.1 263.041C512.896 275.194 510.686 282.476 505.6 293.541C497.699 310.729 486.828 316.819 471.6 328.041C458.026 338.044 449.1 340.041 433.6 348.541C418.1 357.041 430.6 356.041 430.6 356.041H436.1L443.1 353.041C443.1 353.041 460.271 339.668 471.6 331.541C481.414 324.501 485.779 318.249 497.1 314.041C508.156 309.932 515.484 308.489 527.1 310.541C542.305 313.228 551.21 319.283 560.6 331.541C573.015 347.749 575.032 363.36 569.6 383.041C563.682 404.48 551.124 415.976 530.6 424.541C509.317 433.423 492.499 431.79 471.6 422.041C452.328 413.052 437.414 403.961 433.6 383.041C432.374 376.318 433.6 365.541 433.6 365.541C433.6 365.541 432.6 364.541 430.6 365.541C428.6 366.541 365.445 404.026 336.1 441.041C317.562 464.424 302.555 477.616 297.6 507.041C296.476 513.714 296.342 517.581 296.109 524.265L296.1 524.541C294.888 559.382 316.1 611.541 316.1 611.541H292.1C292.1 611.541 283.872 548.894 267.6 512.541C254.475 483.221 223.6 443.041 223.6 443.041L156.6 379.041C156.6 379.041 168.81 414.577 159.1 433.541C147.398 456.393 125.713 460.779 100.1 462.541C79.2168 463.978 65.8527 460.631 48.0997 449.541C31.9126 439.429 26.5705 428.659 15.5997 413.041C10.0554 405.149 5.32948 401.292 2.59965 392.041C-2.64108 374.281 2.19985 360.228 14.0997 346.041C19.6851 339.382 29.5997 328.041 29.5997 328.041C29.5997 328.041 41.0556 321.832 49.0997 318.541C66.4129 311.457 95.5997 330.041 95.5997 330.041L130.6 350.541L144.6 364.041L153.1 366.041L148.1 358.041L105.6 335.041C105.6 335.041 88.1396 320.606 80.5997 308.541C70.8461 292.934 65.6253 281.92 66.5997 263.541C67.5403 245.797 71.1716 233.731 84.0997 221.541Z" fill="#529D7F" stroke="#529D7F"/>
  </g>
</svg>
